<svg id="Layer_1" data-name="Layer 1" xmlns="http://www.w3.org/2000/svg" viewBox="0 0 120 4.35"><defs><style>.cls-1{fill:#fff}</style></defs><title>border-white</title><path class="cls-1" d="M.29 1.67c-.44.07.24.26-.29.11.06-.11.14-.2.29-.11zM118.54 1.84c-1.42.76-3.29 0-4.84.48-.18 0 0-.42-.36-.32-1.51.59-3.88.24-5.71-.22l.11-.12c-.35-.09-.78.31-1.15.25 0-.08.12-.11 0-.22-.09.24-.67.11-.83.29-.15-.09-.13-.28-.32-.38l-.21.27c-.59.64-1.43 0-2.23.29 0-.06.12-.11.05-.17a24.51 24.51 0 0 1-4.35.46.36.36 0 0 0 0-.38c-.07.28-.52.36-.9.41-.17-.29-.66.27-1.12.11v-.06c-.34.3-.5-.18-.77.19l-.21-.23c-.15.41-.48-.21-.76 0v.08c-.26.1-.4-.11-.64 0-.57.11-.9-.12-.88.2-.2-.26.55-.12.24-.49a33.15 33.15 0 0 1-5.67.27c-.21-.13-.35-.17-.4-.29-.19.06-.71.06-.88.22.06 0-.12-.16-.22-.18-.34-.12-.37.35-.75.21.15-.09.2-.19.15-.31a2.57 2.57 0 0 1-1.13.29c.06-.05.15-.09.14-.19-.41.28-.75-.06-1.12.12l.22-.27c-.58-.22-.17.39-.68.25.12-.06.08-.13.1-.21-.47.34-1.23.23-1.7.34a.1.1 0 0 0 0-.08 8.51 8.51 0 0 0-1.61.08c-.2-.08.07-.45-.47-.38 0 .37-.92.15-.6.57a4.23 4.23 0 0 0-1.5-.07c.21-.14-.23-.45.16-.49l-.29-.22c0-.15.3.05.21-.14a4 4 0 0 1-.93.1c-.36.23-.68.65-1.26.7.27-.14-.15-.41 0-.47l-.81.71c-.19 0 0-.29-.32-.2 0 .1-.11.16-.19.24s-.8.09-.88-.27c-.08-.14.31-.08.1-.21s-.37.13-.73.13c-.23-.05-.69.16-.44.36.16 0-.06-.22.18-.11a1.28 1.28 0 0 1-.93.28c.12-.06.11-.16.16-.26a4.83 4.83 0 0 1-1.52.5c0 .17.2-.32.28-.22-.68-.24-1.41.34-2 0 .09 0 .05.25 0 .2-.33 0-.31-.27-.53-.18 0-.15-.27 0-.49.09s-.06-.07.13-.09a4.63 4.63 0 0 1-2.25.14c0 .1-.44.36-.6.35l.06-.23c-.15-.14-.55 0-.57-.18-.35.28 1.34-.24.87 0-.12-.19-.66.36-.56.05-.33 0-.65.27-1 .05.09 0 .27-.32 0-.3-.47 0-.13.11-.51.19l-.24.09c0 .22-.42 0-.24.22-.06-.18-.68.11-.63-.26l.23-.37c-.2 0-.33.31-.49.44 0 0-.08-.09-.07-.13 0 .44-.48 0-.72.31-.42-.15-1.08 0-1.28-.29a1.5 1.5 0 0 1-1 .2c.07 0 .18-.05.2-.15-.23-.13-.29 0-.5.06 0-.07-.47-.26-.72-.42-.32.13-.21.37-.24.52-.3-.44-.91.28-1.28-.12.11-.06.47-.22.2-.33-.3-.44-.6.32-1.07.11l.12.36c-.21-.23-.7.21-.65-.16-.16.13-.56-.12-.51.24-.78-.3-1.9.18-2.38-.46-.11.06-.39 0-.33.18s.26-.14.33 0c-.1 0-.12.11-.13.16-.24-.08-.43-.11-.2-.4-.54-.22-.56.6-1.25.47 0-.15 0-.2-.22-.18l-.38.25c-.45-.06-.25-.33-.26-.58-.24 0-.53 0-.64.22l-.29-.31C48.4 3 48 3 47.89 3H48c0-.1-.32 0-.46 0 0 .15.31.22.47.26-.12.11-.31.08-.47.21.05-.24-.39-.17-.58-.2s-.24.22-.31.21-.35 0-.19-.2.17.12.29 0c-.14-.09-.13-.32-.42-.15s.06.48-.37.33c.11-.06.13-.16.22-.25l-.4-.13v.22c-.05-.06 0-.08 0-.11-.12.23-.61.07-.7.34-.2 0-.42-.15-.61-.18a.71.71 0 0 0-.74.11.92.92 0 0 0-.59.15c-.32-.17-.11-.84-.47-.56-.33 0-.51.41-.38.55-.59-.15-1.26.21-1.8-.13-.08.09 0 .15-.21.2-.86-.09-1.83.26-2.51-.17.25-.09 0-.22 0-.35-.21.2-.25-.21-.32.14s0 .3.24.38a2.77 2.77 0 0 1-1.59-.08c.14.09 0 .15-.08.22 0-.32-.34-.37-.63-.26v.2l-.19-.2c-.11.06-.12.41-.41.22a.4.4 0 0 0-.08-.21c-.3.16-.72.43-1 .27l-.26-.29c-.14 0-.37.2-.13.29-.55-.17-.91-.19-1.08-.44a6.22 6.22 0 0 1-3.43.58v-.15c-.3-.14-.15.26-.36.15.1-.14-.23-.3 0-.47-.42-.15-.55.25-.82.32 0 .19.22-.12.17.12 0 .07-.59-.15-.65.14-.11-.11 0-.33 0-.45l-.26.14c-.32-.34.72-.61.39-1h-.24c-.23-.3.63-.34 0-.45-.26.14-.48.57-.25.69-.54.08-.25.69-.83.67-.16-.17.47 0 .35-.28-.27-.23-.55.13-.79 0 .27.11 0 .4-.13.46-.3-.14.19-.28-.23-.3-.07.17-.45.29-.12.41-.15.38-.44-.11-.66.19-.14-.27.43-.62 0-.75.07.26-.57.35-.33.73a.26.26 0 0 1-.05-.47c-.26-.16-.63.47-.71 0l-.09.26c-.08-.09-.2-.15-.33-.29s-.73.36-.71 0c-.07 0-.59 0-.39.3s.37-.2.55.17c-.23-.3-.47 0-.65.14V4.1c-.11.06-.37 0-.44.19a.14.14 0 0 0 0-.23l-.23.16c-.45.12-.11-.41-.55-.34l.33-.18c-.07 0-.22-.18-.43-.11s-.23.47-.31.64c-.25.09-.11-.24-.35 0l.31-.29c0-.07-.22-.35-.55-.35s-.54.38-.21.5c-.17 0-.4-.13-.27-.28-.38.07 0 .23-.28.36-.13-.14-.55-.35-.79-.55l.34-.36h-.23c.29-.29-.15-.22 0-.52a.72.72 0 0 0-.49.13c.45.48-.5.66-.37 1.1-.62.12-.38-1.07-1-.38.11.11-.2.45.19.32-.38 0-.26.44-.71.26.33-.18-.36-.45.12-.71 0 .15.27.11.34.07-.16-.17 0-.44-.36-.44-.24 0-.57.05-.52.28s.37 0 .21.23c-.48.09-.56-.3-.75.15.3 0 .38.23.37.4l-.35.11.07-.17c-.56-.12-.17.3-.71.26L13.83 4c.13-.29.79.13.69-.34-.35 0-.47.22-.8.1.07 0 .18-.05.25-.09-.13 0-.25-.63-.76-.27-.26.14-.07.17-.08.34-.57.05-.74.23-1.1.26.08-.34-.65 0-.24-.38A1 1 0 0 0 13 3.48c-.21-.4.45.06.57-.35-.46 0-.43-.41-.51-.67-.13 0-.25.09-.32.13-.05.24.11.24.12.49a1.7 1.7 0 0 0-1.28.31.21.21 0 0 1 .08-.39 7.58 7.58 0 0 1-1.82 0c.37.4-.64.09-.39.43.31.09.57.37.4.55-.19 0 0-.17-.07-.26-.24.22-.38-.35-.62 0 .55-.13.11-.49.21-.8-.4.18 0-.22-.38-.22a5.57 5.57 0 0 1-1.32.3c-.55-.3-1.4 0-1.9 0-.26-.16-.08-.51-.36-.57s.24.38-.24.22v-.07c-.15.08-.89-.24-1 .27l.15-.38c-.09 0-.18.05-.25.09 0-.12-.11-.24 0-.32-.3-.26-.63 0-1 .05l.21.23c-.56.18-.94 0-1.48 0V2.3l-.32.13c.08-.21-.22-.35-.39-.17L2 1.79c.23.13-.25.27-.11.49a.49.49 0 0 0 .71-.08c-.19 0-.2 0-.35.1-.06-.31.23-.3.37-.5-.1 0-.24-.08-.27 0a1.11 1.11 0 0 1 .73-.18c-.22.12.12.19 0 .28 0-.27.34-.36.75-.28.29.31.76-.2 1.24-.12a1.62 1.62 0 0 1-.72.61c.3.14.33 0 .63.13.14-.21.25-.52.63-.64v.2c.35-.1.35-.4.8-.35.76.1 1.55.1 2.13.13v.2c.32-.43 1.08-.16 1.52-.35.74.2 1.61-.19 2 .16A21 21 0 0 1 16 1.36l-.23.3c.24-.22.16.17.4.13-.27-.24.33-.31.5-.49a2.89 2.89 0 0 0 1.92-.23v.2c.54-.38 1.19 0 1.86 0 .08.08.2.27.4.25.37-.33.56-.3 1.09-.51a5.56 5.56 0 0 1 1.43.21c1.47-.46 3-.17 4.51-.44L28 1c1.49-.51 3.31 0 4.58-.31l-.12.41c.4.13.91-.11.8-.4.4.12 1-.2 1.25.14.41.08.5-.19.84-.24a5.22 5.22 0 0 0 1.89 0L37 .65a.16.16 0 0 0 .1.29c.29-.11 1.05.11.77-.38.82.28 1.91-.23 2.71.15-.07-.13.13-.16.22-.25a6.49 6.49 0 0 0 2.05 0c.11.07-.18.23.11.24s0-.17.22-.25c1.17-.25 2.36.26 3.42.19a50.72 50.72 0 0 1 5.66-.12v.1c.61-.37 1.42.38 1.9-.18.14.09.55 0 .44.23.48-.26 1.35.25 2-.09a.24.24 0 0 0-.17.05c.7.22 1.32-.08 2.07.12-.08 0-.21.07-.23.17.29.19.68-.41.84.06.16 0 .12-.24 0-.22A29.76 29.76 0 0 0 64.2.53c1.21.28.07.79 1 .44.08.09.06-.18.07-.08.37-.13.58.53.83.28-.1-.29.2-.17.21-.34.74.19.89.45 1.48.23v.15c.69-.43 1.48-.2 2.06-.7C73.58.43 77.21.15 80.89.1c3.65.09 7.22-.1 10.92.13a2.22 2.22 0 0 0 1.88.23c0 .06-.1.08 0 .14 0-.33.67 0 .76-.34 1.37.06 2.63 0 4 0-.22 0-.33.3-.07.28l.29-.24v.09c.18 0 .38-.21.19-.32 3.54-.28 7 .37 10.48.29a13.77 13.77 0 0 0 2.89-.06 27 27 0 0 0 7.77.49 1.94 1.94 0 0 1-1.46 1.05zM.82 1.64c.09.16.4.25.16.47C.94 2 .79 1.78.82 1.64z"/><path class="cls-1" d="M9 3.32s.12.07.14.09-.2.15-.28.06c.14 0 .14-.08.14-.15zM11.15 3.42c0 .15-.48.26-.75.28zM13.11 4c.17.12.12.19-.11.19 0-.06.06-.1.11-.19zM13.25 3.69a.4.4 0 0 1 .32.17c-.01-.13-.38.08-.32-.17zM17.5 4.12c.1 0 .32-.13.42 0-.11-.12-.5.21-.42 0zM19.48 3.9h.16c.07 0 0 .17-.11.19zM55.48 3.31l-.22.07.03-.14.19.07zM71.25 3.3c.21-.09.15.14.18.16-.19.01.07-.18-.18-.16zM79.75 2.57l-.06.01.02-.3.04.29z"/></svg>